<svg width="44" height="45" fill="none" xmlns="http://www.w3.org/2000/svg"><path d="M28.516 27.719c0-.782-.196-3.907-4.297-3.907h-7.91v8.008h7.91c.39 0 4.297.098 4.297-4.101zm-4.883-7.13s3.71.099 3.71-3.515c0-1.562-.292-3.515-3.71-3.515h-7.324v7.03h7.324zM43.75 7.7A7.51 7.51 0 0036.426.375h-29.2C3.224.473 0 3.695 0 7.699v29.2a7.21 7.21 0 007.227 7.226h29.199c4.004 0 7.226-3.223 7.324-7.227V7.7zM33.008 28.305c0 4.785-3.809 6.152-5.176 6.543-2.344.78-3.516.586-16.016.586V9.945H24.22c7.812 0 7.617 5.664 7.617 6.348 0 2.637-1.465 4.395-3.613 5.371v.098c4.101.879 4.785 4.492 4.785 6.543z" fill="#fff"/></svg>