<svg width="26" height="26" fill="none" xmlns="http://www.w3.org/2000/svg"><path d="M8.379 20.46c0-.1-.102-.202-.254-.202-.152 0-.254.101-.254.203 0 .102.102.203.254.152.152 0 .254-.05.254-.152zm-1.574-.253c0 .102.101.254.254.254.101.05.253 0 .304-.102 0-.101-.05-.203-.203-.254-.152-.05-.305 0-.355.102zm2.285-.05c-.152 0-.254.1-.254.253 0 .102.152.152.305.102.152-.051.254-.102.203-.203 0-.102-.153-.204-.254-.153zm3.3-19.5C5.384.656 0 6.038 0 13.046c0 5.637 3.504 10.46 8.582 12.187.66.102.863-.304.863-.609v-3.148s-3.554.761-4.316-1.524c0 0-.559-1.473-1.371-1.828 0 0-1.168-.813.05-.813 0 0 1.27.102 1.981 1.32 1.117 1.981 2.945 1.423 3.707 1.067.102-.812.406-1.37.813-1.726-2.844-.305-5.739-.711-5.739-5.586 0-1.422.407-2.082 1.22-2.996-.153-.356-.56-1.676.151-3.454C6.957 5.633 9.445 7.31 9.445 7.31c1.016-.305 2.082-.407 3.149-.407 1.117 0 2.183.102 3.199.407 0 0 2.438-1.727 3.504-1.372.71 1.778.254 3.098.152 3.454.813.914 1.32 1.574 1.32 2.996 0 4.875-2.996 5.281-5.84 5.586.458.406.864 1.168.864 2.386 0 1.676-.05 3.809-.05 4.215 0 .356.253.762.913.61 5.078-1.676 8.532-6.5 8.532-12.137 0-7.008-5.739-12.39-12.797-12.39zM4.927 18.175c-.102.05-.051.203 0 .305.101.05.203.101.304.05.051-.05.051-.203-.05-.304-.102-.051-.203-.102-.254-.051zm-.559-.406c-.05.101 0 .152.102.203.101.05.203.05.254-.051 0-.05-.051-.102-.153-.152-.101-.051-.152-.051-.203 0zm1.625 1.828c-.05.05-.05.203.102.304.101.102.254.153.304.051.051-.05.051-.203-.05-.305-.102-.101-.254-.152-.356-.05zm-.558-.762c-.102.05-.102.203 0 .305.101.101.203.152.304.101.051-.05.051-.203 0-.305-.101-.101-.203-.152-.304-.101z" fill="hsl(0, 0%, 100%)"/></svg>