<svg width="50" height="41" fill="none" xmlns="http://www.w3.org/2000/svg"><path d="M21.094 10.777h-7.715C9.473 9.703.586 9.997.586 18.102c0 2.93 1.465 4.98 3.418 5.957C1.563 26.305.39 27.379.39 28.844c0 1.074.39 2.05 1.757 2.636C.781 32.75 0 33.727 0 35.484c0 3.125 2.734 4.98 9.863 4.98 6.934 0 10.938-2.538 10.938-7.128 0-5.762-4.395-5.566-14.844-6.152l1.367-2.149c2.637.781 11.524.977 11.524-6.64 0-1.758-.684-3.028-1.465-4.004l3.71-.293v-3.32zm-6.25 23.633c0 3.125-10.254 3.125-10.254.196 0-.782.586-1.465 1.074-2.051 7.617.488 9.18.293 9.18 1.855zM9.96 21.227c-5.176 0-4.98-6.934.098-6.934 4.785 0 4.98 6.934-.098 6.934zm12.988 9.863h11.328v-3.125l-2.05-.293c-.586-.098-.586-.195-.586-.781V10.387h-8.3l-.39 3.222c2.44.88 2.636.782 2.636 1.563V26.89c0 .879 0 .683-2.637 1.074v3.125zm5.078-23.926c2.344 0 3.614-1.27 3.614-3.516S30.37.133 28.027.133c-2.246 0-3.515 1.27-3.515 3.515 0 2.247 1.27 3.516 3.515 3.516zM50 29.527l-1.074-3.515c-6.446 2.441-5.957-1.953-5.957-2.637v-9.473h5.957V9.996h-5.664c-.39 0-.293.39-.293-6.055H39.16c-.39 4.297-1.758 6.055-5.273 6.446v3.515c3.222 0 3.125-.097 3.125.391v10.45c0 4.491 1.758 6.347 6.445 6.347 2.246 0 4.785-.781 6.543-1.563z" fill="#fff"/></svg>