<svg width="44" height="45" fill="none" xmlns="http://www.w3.org/2000/svg"><path d="M0 .375v43.75h43.75V.375H0zm23.73 34.18c0 4.199-2.44 6.152-6.152 6.152-3.223 0-5.176-1.66-6.152-3.71l3.418-2.052c.586 1.172 1.172 2.149 2.636 2.149 1.27 0 2.149-.586 2.149-2.637V20.492h4.101v14.063zm9.766 6.152c-3.809 0-6.25-1.758-7.52-4.2l3.419-1.855c.878 1.367 1.953 2.442 4.003 2.442 1.66 0 2.832-.88 2.832-2.051 0-1.367-1.171-1.855-3.027-2.734l-1.074-.391c-2.93-1.27-4.883-2.832-4.883-6.25 0-3.027 2.344-5.371 6.055-5.371 2.539 0 4.492.879 5.761 3.223l-3.124 2.05c-.782-1.172-1.465-1.758-2.735-1.758-1.172 0-1.953.782-1.953 1.758 0 1.27.781 1.758 2.54 2.54l1.073.488c3.516 1.465 5.469 3.027 5.469 6.445 0 3.71-2.93 5.664-6.836 5.664z" fill="#fff"/></svg>