<svg width="63" height="28" fill="none" xmlns="http://www.w3.org/2000/svg"><path d="M59.766 10.637c0-1.953.293-3.125.293-5.274 0-3.32-1.172-4.394-3.907-4.394h-2.05v2.344h.683c1.367 0 1.66.488 1.66 2.148 0 1.562-.195 3.223-.195 4.98 0 2.442.781 3.32 2.344 3.711v.098c-1.563.39-2.344 1.27-2.344 3.71 0 1.856.195 3.321.195 4.981 0 1.758-.39 2.247-1.66 2.247h-.683v2.44h2.05c2.735 0 3.907-1.073 3.907-4.394 0-2.148-.293-3.32-.293-5.273 0-1.074.683-2.246 2.734-2.344V12.98c-2.05-.097-2.734-1.27-2.734-2.343zm-10.254 3.125c-1.563-.586-3.028-.977-3.028-1.953 0-.782.586-1.27 1.758-1.27 1.172 0 2.149.488 3.32 1.27l2.051-2.637c-1.27-.977-3.027-2.05-5.468-2.05-3.418 0-5.762 2.05-5.762 4.882 0 2.441 2.148 3.71 4.004 4.492 1.562.586 3.125 1.074 3.125 2.149 0 .78-.586 1.27-1.953 1.27-1.27 0-2.637-.49-4.004-1.563l-2.051 2.93c1.562 1.269 3.906 2.148 5.86 2.148 4.1 0 6.347-2.149 6.347-4.98 0-2.833-2.246-4.005-4.2-4.688zm-35.059 5.86c-.39 0-.879-.294-.879-1.27V.969H6.348c-2.832 0-4.004 1.074-4.004 4.394 0 2.149.293 3.418.293 5.274 0 1.074-.684 2.246-2.637 2.343v2.637c1.953.098 2.637 1.172 2.637 2.246 0 1.953-.293 3.028-.293 5.274 0 3.32 1.172 4.394 3.906 4.394H8.3v-2.343h-.683c-1.27 0-1.66-.489-1.66-2.247 0-1.66.195-3.125.195-4.98 0-2.344-.78-3.32-2.343-3.613v-.196c1.562-.39 2.343-1.27 2.343-3.613 0-1.855-.195-3.418-.195-5.078 0-1.66.39-2.149 1.66-2.149h1.465V18.06c0 3.125 1.074 5.175 4.2 5.175.976 0 1.757-.195 2.245-.39l-.488-3.32a1.718 1.718 0 01-.586.097zm22.559-5.86c-1.563-.586-3.028-.977-3.028-1.953 0-.782.684-1.27 1.758-1.27 1.172 0 2.149.488 3.32 1.27l2.051-2.637c-1.27-.977-3.027-2.05-5.37-2.05-3.516 0-5.86 2.05-5.86 4.882 0 2.441 2.148 3.71 4.004 4.492 1.66.586 3.125 1.074 3.125 2.149 0 .78-.586 1.27-1.953 1.27-1.27 0-2.54-.49-4.004-1.563l-1.953 2.93c1.562 1.269 3.906 2.148 5.859 2.148 4.102 0 6.25-2.149 6.25-4.98.098-2.833-2.148-4.005-4.2-4.688zm-15.137-6.64c-3.71 0-7.324 3.124-7.227 8.007 0 5.078 3.418 8.105 7.813 8.105 1.855 0 3.906-.683 5.469-1.757l-1.563-2.735c-1.172.684-2.246.977-3.32.977-2.05 0-3.613-.977-4.102-3.32h9.375c0-.391.098-1.075.098-1.954.098-4.101-2.148-7.324-6.543-7.324zm-2.93 6.444c.39-2.05 1.563-3.027 3.028-3.027 1.855 0 2.539 1.27 2.539 3.027h-5.567z" fill="#fff"/></svg>