<svg width="23" height="24" fill="none" xmlns="http://www.w3.org/2000/svg"><path d="M21.125.875H1.575C.71.875 0 1.637 0 2.551V22c0 .914.71 1.625 1.574 1.625h19.551c.863 0 1.625-.71 1.625-1.625V2.55c0-.913-.762-1.675-1.625-1.675zm-14.27 19.5H3.504V9.559h3.351v10.816zM5.18 8.035c-1.117 0-1.98-.863-1.98-1.93 0-1.066.862-1.98 1.98-1.98 1.066 0 1.93.914 1.93 1.98a1.93 1.93 0 01-1.93 1.93zm14.32 12.34h-3.402v-5.281c0-1.219 0-2.844-1.727-2.844-1.777 0-2.031 1.371-2.031 2.793v5.332H8.988V9.559h3.2v1.472h.05c.457-.863 1.575-1.777 3.2-1.777 3.402 0 4.062 2.285 4.062 5.18v5.941z" fill="hsl(0, 0%, 100%)"/></svg>