<svg width="50" height="45" fill="none" xmlns="http://www.w3.org/2000/svg"><path d="M40.82 14.633c-.586-.195-1.074-.39-1.562-.488 0-.391.097-.782.195-1.172 1.172-5.762.39-10.45-2.246-12.012-2.539-1.465-6.738.098-11.035 3.809-.39.293-.781.683-1.172 1.074-.293-.293-.586-.489-.781-.782-4.492-3.906-8.985-5.566-11.621-4.003-2.54 1.464-3.32 5.859-2.246 11.425.097.489.195 1.075.39 1.563-.683.195-1.27.39-1.855.586C3.71 16.488 0 19.32 0 22.25c0 3.027 3.906 6.152 9.375 8.008.39.098.879.293 1.27.39-.098.586-.196 1.172-.391 1.758-.977 5.371-.195 9.668 2.344 11.133 2.636 1.563 7.129 0 11.425-3.809.293-.292.684-.585.977-.878.488.39.879.78 1.367 1.171 4.2 3.614 8.301 5.079 10.84 3.614 2.637-1.563 3.516-6.153 2.441-11.817-.097-.39-.195-.879-.293-1.27l.88-.292C45.897 28.402 50 25.375 50 22.25c0-2.93-3.906-5.86-9.18-7.617zM27.54 6.332c3.71-3.223 7.03-4.394 8.593-3.516 1.66.88 2.344 4.786 1.27 9.766-.098.39-.098.684-.196.977-2.246-.489-4.395-.782-6.64-.977a54.327 54.327 0 00-4.102-5.273c.39-.293.683-.684 1.074-.977zM16.308 27.328c.488.879.976 1.66 1.562 2.54-1.562-.196-3.125-.391-4.59-.782.489-1.367.977-2.832 1.563-4.297.488.879.976 1.66 1.465 2.54zM13.28 15.61c1.465-.39 2.93-.586 4.492-.78-.488.78-.976 1.66-1.464 2.44-.489.88-.977 1.66-1.465 2.54-.586-1.465-1.074-2.832-1.563-4.2zm2.735 6.739c.586-1.367 1.367-2.735 2.05-4.004.782-1.27 1.563-2.54 2.442-3.809 1.465-.098 2.93-.195 4.492-.195 1.465 0 3.027.098 4.395.195.878 1.27 1.66 2.54 2.44 3.809.684 1.27 1.466 2.539 2.052 3.906a30.92 30.92 0 01-2.051 4.004l-2.344 3.808c-1.465.098-3.027.196-4.492.196-1.563 0-3.027-.098-4.492-.195-.88-1.27-1.66-2.54-2.442-3.81-.683-1.269-1.367-2.636-2.05-3.905zm17.578 4.98c.586-.879.976-1.758 1.465-2.637.586 1.465 1.172 2.832 1.66 4.297-1.563.39-3.028.684-4.59.782.488-.782.977-1.66 1.465-2.442zm1.465-7.52c-.489-.878-.977-1.66-1.465-2.538-.489-.782-.977-1.66-1.465-2.442 1.562.195 3.125.488 4.492.781-.488 1.465-.977 2.832-1.562 4.2zM25 8.872c.977 1.074 1.953 2.246 2.832 3.516a56.717 56.717 0 00-5.762 0A55.83 55.83 0 0125 8.87zM13.672 2.816c1.66-.878 5.273.489 9.082 3.809.293.293.488.488.781.684-1.562 1.66-2.93 3.418-4.2 5.273-2.245.195-4.394.488-6.542.977-.195-.489-.293-.977-.39-1.563-.88-4.687-.294-8.203 1.269-9.18zM11.23 28.598c-.39-.098-.78-.196-1.171-.391-2.051-.684-4.493-1.66-6.153-3.027a4.524 4.524 0 01-1.855-2.93c0-1.758 3.125-4.102 7.52-5.664.585-.195 1.171-.293 1.757-.488.586 2.148 1.465 4.199 2.344 6.25-.977 1.953-1.758 4.101-2.442 6.25zm11.426 9.57c-1.66 1.465-3.515 2.637-5.566 3.418-1.074.586-2.246.586-3.418.195-1.563-.976-2.149-4.394-1.27-8.984.098-.586.196-1.172.293-1.66 2.246.488 4.395.781 6.64.976 1.27 1.758 2.735 3.516 4.2 5.176l-.879.879zM25 35.824a39.07 39.07 0 01-2.93-3.613c.977.098 1.953.098 2.93.098.977 0 1.953 0 2.93-.098-.88 1.27-1.856 2.441-2.93 3.613zm12.793 2.93c-.098 1.172-.684 2.246-1.563 3.027-1.562.88-4.882-.293-8.496-3.32-.39-.39-.78-.781-1.27-1.172 1.563-1.66 2.93-3.32 4.2-5.176 2.246-.195 4.395-.586 6.64-1.074l.294 1.172c.39 2.148.488 4.395.195 6.543zm1.758-10.547c-.293.098-.489.195-.782.293-.683-2.148-1.562-4.2-2.538-6.25.976-1.953 1.757-4.004 2.44-6.152.49.195.977.293 1.466.488 4.492 1.562 7.715 3.906 7.715 5.664 0 1.855-3.418 4.395-8.301 5.957zM25 26.742c2.441 0 4.395-1.953 4.395-4.492A4.376 4.376 0 0025 17.855c-2.54 0-4.492 1.954-4.492 4.395 0 2.54 1.953 4.492 4.492 4.492z" fill="#fff"/></svg>