<svg width="64" height="48" fill="none" xmlns="http://www.w3.org/2000/svg"><path d="M30.395 36.262c0 .097 0 .097 0 0zm24.316-8.496c-1.953 0-3.906.488-5.664 1.367-.488-1.172-1.172-2.149-1.27-2.93-.097-.879-.195-1.465-.097-2.441.195-1.075.78-2.637.78-2.735 0-.097-.097-.586-1.366-.586-1.27 0-2.344.196-2.54.586-.195.586-.39 1.172-.488 1.856-.195 1.074-2.539 5.176-3.808 7.324-.39-.879-.781-1.563-.88-2.148-.097-.88-.194-1.465-.097-2.442.098-1.074.782-2.539.782-2.734-.098-.098-.196-.586-1.465-.586-1.27 0-2.344.195-2.442.586-.097.293-.293 1.074-.488 1.855-.293.684-3.32 7.52-4.102 9.278-.488.879-.78 1.66-1.074 2.148 0 .098 0 .098-.098.098.098 0 .098-.098.098 0a2.42 2.42 0 01-.39.586c-.098.39-.293.683-.391.683-.098 0-.195-.879 0-1.953.488-2.441 1.562-6.055 1.562-6.152 0-.098.196-.781-.683-1.074-.977-.293-1.27.195-1.367.195l-.098.195s.977-4.101-1.855-4.101c-1.856 0-4.297 1.953-5.567 3.71-.781.391-2.441 1.368-4.2 2.344-.683.293-1.366.684-2.05 1.075l-.098-.098c-3.515-3.809-9.96-6.445-9.668-11.426.098-1.855.684-6.64 12.403-12.402 9.57-4.785 17.187-3.516 18.555-.586 1.855 4.199-4.102 11.914-14.063 12.988-3.809.39-5.762-1.074-6.25-1.562-.586-.586-.586-.586-.781-.489-.39.098-.196.684 0 .977.293.781 1.465 2.148 3.515 2.832 1.856.586 6.348.879 11.72-1.172 5.956-2.344 10.644-8.789 9.276-14.258-1.367-5.469-10.449-7.324-19.14-4.199-5.176 1.758-10.742 4.688-14.746 8.398C1.488 15.266.707 19.074 1 20.734c1.172 5.762 9.082 9.473 12.207 12.305-.098.098-.293.098-.39.195-1.66.782-7.618 4.004-9.18 7.325-1.66 3.808.293 6.543 1.562 6.836 4.102 1.171 8.301-.88 10.547-4.2 2.246-3.418 1.953-7.715.879-9.765v-.098c.39-.195.879-.488 1.27-.684.78-.488 1.562-.879 2.246-1.27-.391.977-.684 2.247-.782 4.102-.195 2.149.684 4.98 1.856 6.055.488.488 1.172.488 1.465.488 1.367 0 1.953-1.074 2.636-2.441.88-1.66 1.563-3.516 1.563-3.516s-.879 5.078 1.66 5.078c.879 0 1.758-1.171 2.246-1.757v-.098c.098-.195.195-.293.195-.293.391-.586 1.172-2.05 2.344-4.492 1.66-3.125 3.125-6.934 3.125-6.934.196.782.39 1.66.586 2.442.293.976.88 1.953 1.367 2.93l-.586.878c-.293.39-.683.782-.976 1.172-1.27 1.563-2.735 3.223-2.93 3.711-.293.586-.195.977.293 1.367.293.196.879.293 1.465.196 1.172-.098 1.953-.293 2.344-.489.683-.293 1.367-.586 1.953-1.074 1.27-.879 1.953-2.148 1.855-3.906 0-.879-.293-1.856-.683-2.734.097-.098.195-.294.39-.489 1.856-2.832 3.418-5.957 3.418-5.957.098.88.293 1.758.586 2.54.196.78.684 1.66 1.075 2.538-1.758 1.465-2.93 3.223-3.32 4.297-.684 2.051-.099 3.028.878 3.223.488.097 1.172-.098 1.758-.293.684-.293 1.465-.684 2.05-1.074 1.27-.977 2.442-2.246 2.344-3.907 0-.78-.293-1.562-.586-2.246 1.563-.683 3.614-1.074 6.153-.78 5.37.683 6.445 4.1 6.25 5.468-.196 1.465-1.367 2.246-1.758 2.441-.39.293-.488.293-.39.489 0 .292.195.292.488.195.488-.098 2.832-1.172 2.93-3.809.195-3.32-3.028-6.933-8.692-6.933zm-41.895 14.16c-1.757 1.953-4.296 2.734-5.37 2.05-1.173-.683-.684-3.515 1.562-5.663 1.27-1.27 3.027-2.442 4.199-3.126.293-.195.586-.39 1.074-.683.098 0 .098-.098.098-.098.098 0 .195-.097.293-.097.879 2.93.098 5.566-1.856 7.617zM26 33.039c-.684 1.465-1.953 5.371-2.734 5.176-.684-.098-1.172-3.125-.196-6.055.489-1.465 1.563-3.222 2.149-3.906.976-1.074 2.05-1.465 2.343-.977.293.489-1.171 4.785-1.562 5.762zm10.84 5.176c-.293.097-.586.195-.684.097-.097 0 .098-.195.098-.195s1.367-1.465 1.953-2.148c.293-.39.684-.782 1.074-1.367v.195c0 1.758-1.758 2.93-2.441 3.418zm8.3-1.953c-.195-.098-.097-.586.489-1.953a8.4 8.4 0 011.855-2.442c.098.293.196.684.196 1.074 0 2.149-1.563 3.028-2.54 3.32z" fill="#fff"/></svg>