<svg width="26" height="27" fill="none" xmlns="http://www.w3.org/2000/svg"><path d="M22.547 2.79c-.66-.56-3.3-2.49-9.09-2.49 0 0-6.855-.405-10.207 2.641C1.371 4.821.71 7.511.66 10.914c-.05 3.352-.152 9.7 5.942 11.426v2.59s-.051 1.066.66 1.32c.863.254 1.32-.559 2.133-1.422.457-.508 1.066-1.168 1.523-1.726 4.164.355 7.363-.457 7.77-.559.812-.305 5.585-.914 6.347-7.211.813-6.55-.355-10.664-2.488-12.543zm.66 12.034c-.61 5.281-4.52 5.637-5.23 5.89-.305.052-3.098.763-6.653.56 0 0-2.64 3.148-3.453 4.011-.254.254-.559.254-.559-.305v-4.367c-5.128-1.422-4.824-6.804-4.773-9.597.05-2.844.559-5.13 2.133-6.704 2.844-2.59 8.683-2.183 8.683-2.183 4.926 0 7.262 1.523 7.82 1.98 1.829 1.575 2.743 5.282 2.032 10.715zm-7.059-4.062c-.05-1.473-.812-2.285-2.234-2.387-.457 0-.508.66-.05.66 1.066.102 1.573.61 1.675 1.727 0 .457.66.406.61 0zm1.067.558c0 .407.66.457.66 0 .05-2.437-1.523-4.468-4.469-4.672-.457-.05-.508.61-.05.66 2.539.153 3.91 1.88 3.859 4.012zm2.387.66c-.051-4.418-3.047-7.007-6.805-7.058-.406 0-.406.66 0 .66 3.351.05 6.094 2.285 6.144 6.398 0 .457.66.457.66 0zm-.61 4.977c.254-.457.203-.863-.152-1.168-.66-.61-1.574-1.27-2.336-1.676-.559-.304-1.117-.101-1.371.203l-.457.61c-.254.304-.711.254-.711.254-3.402-.864-4.317-4.266-4.317-4.266s0-.457.305-.71l.61-.509c.304-.254.457-.812.152-1.37a7.626 7.626 0 00-.762-1.169C9.7 6.75 9.04 6.04 9.04 6.04c-.254-.406-.71-.457-1.168-.203h-.05c-.966.508-2.032 1.574-1.676 2.59 0 0 .253.914 1.32 2.844.508.964 1.066 1.726 1.574 2.386.559.711 1.32 1.473 2.133 2.133 1.625 1.27 4.113 2.59 5.18 2.895h.05c1.016.355 2.082-.711 2.59-1.676v-.051z" fill="hsl(0, 0%, 100%)"/></svg>