<svg viewBox="0 0 26 27" xmlns="http://www.w3.org/2000/svg" xmlns:xlink="http://www.w3.org/1999/xlink"><style>:root&gt;svg{display:none}:root&gt;svg:target{display:block}</style><svg fill="none" viewBox="0 0 26 26" id="facebook" xmlns="http://www.w3.org/2000/svg"><path d="M25.594 13.25C25.594 6.293 19.957.656 13 .656S.406 6.293.406 13.25c0 6.297 4.57 11.527 10.614 12.441v-8.785h-3.2V13.25h3.2v-2.742c0-3.149 1.878-4.926 4.722-4.926 1.422 0 2.844.254 2.844.254v3.098h-1.574c-1.575 0-2.082.964-2.082 1.98v2.336h3.504l-.559 3.656H14.93v8.785c6.043-.914 10.664-6.144 10.664-12.441z" fill="hsl(0, 0%, 100%)"/></svg><svg fill="none" viewBox="0 0 26 26" id="git" xmlns="http://www.w3.org/2000/svg"><path d="M8.379 20.46c0-.1-.102-.202-.254-.202-.152 0-.254.101-.254.203 0 .102.102.203.254.152.152 0 .254-.05.254-.152zm-1.574-.253c0 .102.101.254.254.254.101.05.253 0 .304-.102 0-.101-.05-.203-.203-.254-.152-.05-.305 0-.355.102zm2.285-.05c-.152 0-.254.1-.254.253 0 .102.152.152.305.102.152-.051.254-.102.203-.203 0-.102-.153-.204-.254-.153zm3.3-19.5C5.384.656 0 6.038 0 13.046c0 5.637 3.504 10.46 8.582 12.187.66.102.863-.304.863-.609v-3.148s-3.554.761-4.316-1.524c0 0-.559-1.473-1.371-1.828 0 0-1.168-.813.05-.813 0 0 1.27.102 1.981 1.32 1.117 1.981 2.945 1.423 3.707 1.067.102-.812.406-1.37.813-1.726-2.844-.305-5.739-.711-5.739-5.586 0-1.422.407-2.082 1.22-2.996-.153-.356-.56-1.676.151-3.454C6.957 5.633 9.445 7.31 9.445 7.31c1.016-.305 2.082-.407 3.149-.407 1.117 0 2.183.102 3.199.407 0 0 2.438-1.727 3.504-1.372.71 1.778.254 3.098.152 3.454.813.914 1.32 1.574 1.32 2.996 0 4.875-2.996 5.281-5.84 5.586.458.406.864 1.168.864 2.386 0 1.676-.05 3.809-.05 4.215 0 .356.253.762.913.61 5.078-1.676 8.532-6.5 8.532-12.137 0-7.008-5.739-12.39-12.797-12.39zM4.927 18.175c-.102.05-.051.203 0 .305.101.05.203.101.304.05.051-.05.051-.203-.05-.304-.102-.051-.203-.102-.254-.051zm-.559-.406c-.05.101 0 .152.102.203.101.05.203.05.254-.051 0-.05-.051-.102-.153-.152-.101-.051-.152-.051-.203 0zm1.625 1.828c-.05.05-.05.203.102.304.101.102.254.153.304.051.051-.05.051-.203-.05-.305-.102-.101-.254-.152-.356-.05zm-.558-.762c-.102.05-.102.203 0 .305.101.101.203.152.304.101.051-.05.051-.203 0-.305-.101-.101-.203-.152-.304-.101z" fill="#212121"/></svg><svg fill="none" viewBox="0 0 24 24" id="instagram" xmlns="http://www.w3.org/2000/svg"><path d="M12.375 6.41a5.84 5.84 0 00-5.84 5.84c0 3.25 2.59 5.84 5.84 5.84 3.2 0 5.84-2.59 5.84-5.84 0-3.2-2.64-5.84-5.84-5.84zm0 9.649a3.803 3.803 0 01-3.809-3.809c0-2.082 1.676-3.758 3.809-3.758a3.75 3.75 0 013.758 3.758c0 2.133-1.676 3.809-3.758 3.809zm7.414-9.852c0-.762-.61-1.371-1.371-1.371-.762 0-1.371.61-1.371 1.371 0 .762.61 1.371 1.371 1.371.762 0 1.371-.61 1.371-1.371zm3.86 1.371c-.102-1.828-.508-3.453-1.829-4.773-1.32-1.32-2.945-1.727-4.773-1.828-1.879-.102-7.516-.102-9.395 0-1.828.101-3.402.507-4.773 1.828-1.32 1.32-1.727 2.945-1.828 4.773-.102 1.879-.102 7.516 0 9.395.101 1.828.508 3.402 1.828 4.773 1.371 1.32 2.945 1.727 4.773 1.828 1.88.102 7.516.102 9.395 0 1.828-.101 3.453-.508 4.773-1.828 1.32-1.371 1.727-2.945 1.828-4.773.102-1.88.102-7.516 0-9.395zM21.21 18.953c-.355 1.016-1.168 1.777-2.133 2.184-1.523.61-5.078.457-6.703.457-1.676 0-5.23.152-6.703-.457a3.85 3.85 0 01-2.184-2.184c-.61-1.473-.457-5.027-.457-6.703 0-1.625-.152-5.18.457-6.703a3.917 3.917 0 012.184-2.133c1.473-.61 5.027-.457 6.703-.457 1.625 0 5.18-.152 6.703.457.965.356 1.727 1.168 2.133 2.133.61 1.523.457 5.078.457 6.703 0 1.676.152 5.23-.457 6.703z" fill="#212121"/></svg><svg fill="none" viewBox="0 0 23 24" id="linkedin" xmlns="http://www.w3.org/2000/svg"><path d="M21.125.875H1.575C.71.875 0 1.637 0 2.551V22c0 .914.71 1.625 1.574 1.625h19.551c.863 0 1.625-.71 1.625-1.625V2.55c0-.913-.762-1.675-1.625-1.675zm-14.27 19.5H3.504V9.559h3.351v10.816zM5.18 8.035c-1.117 0-1.98-.863-1.98-1.93 0-1.066.862-1.98 1.98-1.98 1.066 0 1.93.914 1.93 1.98a1.93 1.93 0 01-1.93 1.93zm14.32 12.34h-3.402v-5.281c0-1.219 0-2.844-1.727-2.844-1.777 0-2.031 1.371-2.031 2.793v5.332H8.988V9.559h3.2v1.472h.05c.457-.863 1.575-1.777 3.2-1.777 3.402 0 4.062 2.285 4.062 5.18v5.941z" fill="#212121"/></svg><svg fill="none" viewBox="0 0 26 27" id="viber" xmlns="http://www.w3.org/2000/svg"><path d="M22.547 2.79c-.66-.56-3.3-2.49-9.09-2.49 0 0-6.855-.405-10.207 2.641C1.371 4.821.71 7.511.66 10.914c-.05 3.352-.152 9.7 5.942 11.426v2.59s-.051 1.066.66 1.32c.863.254 1.32-.559 2.133-1.422.457-.508 1.066-1.168 1.523-1.726 4.164.355 7.363-.457 7.77-.559.812-.305 5.585-.914 6.347-7.211.813-6.55-.355-10.664-2.488-12.543zm.66 12.034c-.61 5.281-4.52 5.637-5.23 5.89-.305.052-3.098.763-6.653.56 0 0-2.64 3.148-3.453 4.011-.254.254-.559.254-.559-.305v-4.367c-5.128-1.422-4.824-6.804-4.773-9.597.05-2.844.559-5.13 2.133-6.704 2.844-2.59 8.683-2.183 8.683-2.183 4.926 0 7.262 1.523 7.82 1.98 1.829 1.575 2.743 5.282 2.032 10.715zm-7.059-4.062c-.05-1.473-.812-2.285-2.234-2.387-.457 0-.508.66-.05.66 1.066.102 1.573.61 1.675 1.727 0 .457.66.406.61 0zm1.067.558c0 .407.66.457.66 0 .05-2.437-1.523-4.468-4.469-4.672-.457-.05-.508.61-.05.66 2.539.153 3.91 1.88 3.859 4.012zm2.387.66c-.051-4.418-3.047-7.007-6.805-7.058-.406 0-.406.66 0 .66 3.351.05 6.094 2.285 6.144 6.398 0 .457.66.457.66 0zm-.61 4.977c.254-.457.203-.863-.152-1.168-.66-.61-1.574-1.27-2.336-1.676-.559-.304-1.117-.101-1.371.203l-.457.61c-.254.304-.711.254-.711.254-3.402-.864-4.317-4.266-4.317-4.266s0-.457.305-.71l.61-.509c.304-.254.457-.812.152-1.37a7.626 7.626 0 00-.762-1.169C9.7 6.75 9.04 6.04 9.04 6.04c-.254-.406-.71-.457-1.168-.203h-.05c-.966.508-2.032 1.574-1.676 2.59 0 0 .253.914 1.32 2.844.508.964 1.066 1.726 1.574 2.386.559.711 1.32 1.473 2.133 2.133 1.625 1.27 4.113 2.59 5.18 2.895h.05c1.016.355 2.082-.711 2.59-1.676v-.051z" fill="#212121"/></svg></svg>